<svg xmlns="http://www.w3.org/2000/svg" x="0px" y="0px"
width="24" height="24"
viewBox="0 0 172 172"
style=" fill:#000000;"><g fill="none" fill-rule="nonzero" stroke="none" stroke-width="1" stroke-linecap="butt" stroke-linejoin="miter" stroke-miterlimit="10" stroke-dasharray="" stroke-dashoffset="0" font-family="none" font-weight="none" font-size="none" text-anchor="none" style="mix-blend-mode: normal"><path d="M0,172v-172h172v172z" fill="none"></path><g id="original-icon" fill="#ffffff"><path d="M51.85755,17.11042c-5.08253,-0.1703 -9.67017,3.02695 -11.26977,7.85421c-1.59959,4.82725 0.17096,10.13141 4.34946,13.02991l67.2099,48.00547l-67.2099,48.00547c-3.46666,2.32822 -5.39372,6.35682 -5.03071,10.51693c0.36301,4.16012 2.95869,7.79407 6.7762,9.48668c3.81751,1.69261 8.25334,1.17629 11.58003,-1.34788l80.26667,-57.33333c3.01053,-2.15302 4.79685,-5.62668 4.79685,-9.32786c0,-3.70119 -1.78633,-7.17484 -4.79685,-9.32786l-80.26667,-57.33333c-1.86158,-1.37156 -4.09431,-2.14833 -6.40521,-2.22839z"></path></g></g></svg>